<svg id="Calque_1" data-name="Calque 1" xmlns="http://www.w3.org/2000/svg" xmlns:xlink="http://www.w3.org/1999/xlink" viewBox="0 0 581.5 581.5">
  <defs>
    <style>
      .cls-2 {
        fill: #ff1d25;
      }

      .cls-3 {
        fill: #39b54a;
      }

      .cls-4 {
        fill: url(#Dégradé_sans_nom_14);
      }

      .cls-5 {
        fill: url(#Dégradé_sans_nom_16);
      }
    </style>
    <linearGradient id="Dégradé_sans_nom_14" x1="306.32084" y1="456.15831" x2="692.40188" y2="456.15831" gradientUnits="userSpaceOnUse">
      <stop offset="0"/>
      <stop offset="0.10919" stop-color="#030904"/>
      <stop offset="0.28737" stop-color="#0a210e"/>
      <stop offset="0.51235" stop-color="#17491e"/>
      <stop offset="0.77255" stop-color="#288034"/>
      <stop offset="1" stop-color="#39b54a"/>
    </linearGradient>
    <linearGradient id="Dégradé_sans_nom_16" x1="307.6481" y1="571.1283" x2="693.72915" y2="571.1283" gradientUnits="userSpaceOnUse">
      <stop offset="0" stop-color="#39b54a"/>
      <stop offset="0.10919" stop-color="#36ac46"/>
      <stop offset="0.28737" stop-color="#2f943c"/>
      <stop offset="0.51235" stop-color="#226c2c"/>
      <stop offset="0.77255" stop-color="#113516"/>
      <stop offset="1"/>
    </linearGradient>
  </defs>
  <g id="hand">
    <path d="M468.76053,655.67072a205.49091,205.49091,0,0,0-7.87079-31.59035c-6.77527-14.25155-17.11451-26.5691-24.65022-40.69908a281.80783,281.80783,0,0,1-28.58643-75.72943c-1.86728-6.48463-3.805-14.15348-5.24365-21.15754-1.93817-10.34024-6.90632-36.21742,3.12688-42.97082,13.28439-10.06043,19.24989-12.191,32.97665-.88752a158.26044,158.26044,0,0,1,35.86943,41.53265,44.48629,44.48629,0,0,1,4.55946,10.112c1.02932,3.54714,1.95351,7.28579,1.08586,10.99078l-.479-.14367c.33767-7.11308-3.51692-13.82024-7.37881-19.55927-10.41032-14.48088-22.688-27.91634-36.80827-38.82326-4.97637-3.53248-10.57088-8.61028-16.94933-5.29625a68.003,68.003,0,0,0-10.72421,6.88822c-8.06493,8.04064-.21778,47.40677,2.3176,58.90146,5.29154,41.53813,30.78,73.42089,50.95258,108.51761,3.44889,6.01521,4.79945,12.95492,6.08486,19.68256a135.68151,135.68151,0,0,1,2.21563,20.18987l-.49823.042Z" transform="translate(-209.25 -209.25)"/>
    <path d="M410.42392,466.987c2.6903,5.86256,8.90815,8.02334,14.5503,10.16572a58.627,58.627,0,0,0,5.97942,2.17809l.75516.20831.14728.37909c2.34357,6.32722,7.2949,11.14675,11.74545,16.03013,2.83141,3.28484,5.83819,6.45065,8.8704,9.49294,3.55142,3.80128,7.65678,6.96119,12.7631,8.1407.94667.18746,2.03325.29506,2.63091-.34562l.491.09436A2.23124,2.23124,0,0,1,467.104,514.947c-2.882,1.34335-6.09649.707-9.06469.02544-8.19968-2.60832-13.38658-9.74621-17.85866-16.45114-3.55-5.79-5.95168-12.19045-10.36531-17.44149l.90228.58713c-7.01822.34691-14.55-1.8341-18.86621-7.757a10.03445,10.03445,0,0,1-1.92148-6.84549l.494-.07748Z" transform="translate(-209.25 -209.25)"/>
    <path class="cls-2" d="M482.9793,514.96257a4.87792,4.87792,0,0,1-2.00725,4.95132c-2.88431,1.99793-9.056,2.54016-11.51151,1.00648-2.47206-1.54508-7.67968-10.85388-12.02052-18.45794-2.45252-4.29524-2.93983-7.05321,1.06164-9.96431,2.92024-2.12439,8.08588-6.83094,11.85684-4.36388C475.49946,491.50153,481.47549,507.30863,482.9793,514.96257Z" transform="translate(-209.25 -209.25)"/>
    <path d="M430.58209,435.43878c-.25387-9.552,4.63487-21.02832,14.84139-23.27394,6.13568-1.25475,13.65431-2.55223,18.33425,2.47423,5.90015,7.7522,11.343,15.79448,17.432,23.39246,3.81276,4.87716,7.70815,9.72329,11.22722,14.82305a278.7088,278.7088,0,0,1,21.38795,35.85508c1.9167,3.94712,4.13587,8.53871,5.80158,12.52376-4.75374,2.41044-1.287.73084-2.36012,1.241-.06081-.02547,2.37-1.20793,2.37141-1.21583,1.44054,3.47013,1.49448,7.72326-.7269,10.872l-.42643-.26109a10.96956,10.96956,0,0,0-1.22739-9.42056l2.38071-1.19031.02282.03924c-1.06524.52735,2.421-1.11651-2.33551,1.29648-.0366-.06-.10962-.17612-.148-.23484-3.0863-4.84261-6.63709-10.51551-9.63559-15.4311-9.72278-15.69072-18.54764-31.8751-28.04245-47.69989a103.57163,103.57163,0,0,0-17.37663-21.41307,7.3948,7.3948,0,0,0-3.1863-1.96894c-2.59922-.80842-5.5328-.21282-8.19708-.0578-4.138.33645-8.39261,1.22347-11.35509,4.23264-4.09708,3.903-6.62845,9.57163-8.28379,15.46073l-.49814-.04328Z" transform="translate(-209.25 -209.25)"/>
    <path d="M475.95145,488.8891a21.09219,21.09219,0,0,1,7.97869,7.89683c.841,1.66848,1.30726,3.62926,2.31757,5.18383,1.92941,3.19318,5.646,4.951,8.11675,7.62688a61.89055,61.89055,0,0,1,8.70854,10.22858,6.07431,6.07431,0,0,0,1.827,1.74418l.076.4942a4.45163,4.45163,0,0,1-3.3009-.09714c-4.67852-1.66546-8.273-5.27312-10.917-9.31544-2.29686-2.94774-3.17878-6.98268-5.789-9.69808-1.24684-1.38083-3.01305-2.37445-4.3838-3.67578a20.084,20.084,0,0,1-5.04431-10.10257l.41046-.28549Z" transform="translate(-209.25 -209.25)"/>
    <path class="cls-2" d="M521.47327,523.32032l-7.62109,5.39622a3.59283,3.59283,0,0,1-4.9521-1.13739l-12.63721-20.173c-2.40966-3.84658-1.96371-7.3484,2.10832-10.606l3.25762-2.44322c2.69463-1.34731,4.82415-1.64845,9.24285,3.38919l11.739,20.62209A3.59285,3.59285,0,0,1,521.47327,523.32032Z" transform="translate(-209.25 -209.25)"/>
    <path d="M470.23611,417.44022a84.2156,84.2156,0,0,1,19.23621,25.1049c5.13226,9.32874,13.47837,16.22321,19.66954,24.79165a138.22649,138.22649,0,0,1,11.76628,17.50143l-.64129-.55195a22.25165,22.25165,0,0,0,6.57,3.04107,5.30192,5.30192,0,0,0,2.37917.07237l.23261.4426a5.37712,5.37712,0,0,1-2.6507,1.00656,18.35026,18.35026,0,0,1-8.4347-1.4088l-.4113-.46446a164.24151,164.24151,0,0,1-18.63152-25.54215c-3.49117-6.12442-6.786-12.40347-11.67847-17.565a81.30832,81.30832,0,0,1-12.93026-16.65988,71.69087,71.69087,0,0,1-4.88079-9.47543l.40518-.293Z" transform="translate(-209.25 -209.25)"/>
    <path d="M462.64038,416.27335c-5.0665-14.396,3.51714-30.586,20.12726-27.76639,6.87206,1.32274,12.30845,5.68849,16.60753,10.924,4.22481,4.92795,8.13536,10.038,12.08943,15.16531a201.992,201.992,0,0,1,24.33953,41.77163,116.81146,116.81146,0,0,1,5.03073,13.74716,16.19787,16.19787,0,0,1,.85795,5.21636c-.34224,3.311-1.30638,7.00311-4.16972,9.0395l-.29067-.40691c1.99156-2.51218,2.1842-6.07677,1.82759-9.15263-3.098-8.65358-7.96017-16.613-12.05027-24.85677-5.69443-11.16986-11.77665-22.857-17.83275-33.85471-4.66207-7.9461-9.9546-16.89509-18.37516-21.1292a26.01,26.01,0,0,0-8.62443-2.344c-9.54338-1.04152-16.4958,4.99319-18.2973,14.19009a42.20361,42.20361,0,0,0-.74723,9.37039l-.49249.08619Z" transform="translate(-209.25 -209.25)"/>
    <path class="cls-2" d="M544.1448,493.47173,534.311,499.1195a3.33782,3.33782,0,0,1-4.51272-1.38473l-11.36191-21.4215a7.37668,7.37668,0,0,1,3.06029-9.97324l2.24093-1.18858a8.09616,8.09616,0,0,1,10.946,3.35877l10.846,20.44878A3.33782,3.33782,0,0,1,544.1448,493.47173Z" transform="translate(-209.25 -209.25)"/>
    <path d="M495.2569,396.51129c-.70034-10.21835,1.88747-22.73814,11.56538-28.12589,4.44366-2.40111,9.8948-3.85456,14.85968-2.00707,7.50854,2.93478,11.22146,10.49665,15.00249,17.03738,3.66052,6.36942,7.40722,12.71506,10.54614,19.4696,3.15982,6.6145,9.07577,14.96183,4.56173,22.58117a11.1581,11.1581,0,0,1-3.79373,3.47977,19.98092,19.98092,0,0,1-7.23589,2.85388c-6.36218,1.20969-12.64475-2.1661-16.93293-6.57659-8.2867-9.01271-17.67013-21.57819-18.1128-34.20574l.49723-.05537c1.81067,7.0516,5.97844,13.02916,10.38415,18.67764,2.23179,2.80521,4.60685,5.50361,7.07041,8.11136,4.24737,4.571,9.70246,9.79087,16.29864,8.8853a15.42788,15.42788,0,0,0,5.537-1.95213,6.70544,6.70544,0,0,0,2.37254-1.865c3.04766-4.6669-1.101-12.74443-2.75311-17.594a85.19333,85.19333,0,0,0-9.81961-20.97507c-5.33546-8.44823-13.18387-17.77508-24.17432-12.99657-10.332,3.56943-13.405,15.58135-15.37329,25.26715l-.49971-.0098Z" transform="translate(-209.25 -209.25)"/>
    <path class="cls-2" d="M540.02718,403.8684h0a9.07192,9.07192,0,0,1,9.07192,9.07192v16.89143a5.84609,5.84609,0,0,1-5.84609,5.84609h-6.40626a5.8915,5.8915,0,0,1-5.8915-5.8915v-16.846a9.07192,9.07192,0,0,1,9.07192-9.07192Z" transform="translate(-338.40872 68.9991) rotate(-25.91724)"/>
    <path d="M548.68884,433.58978c2.65292,4.57149,5.35882,9.669,7.72986,14.409,2.88944,4.84845,4.99421,9.8192,4.486,15.72409l-.4632.18778a22.66428,22.66428,0,0,1-6.64314-10.46384c-.56072-2.30543-1.57394-5.54886-2.30094-7.83862-1.11614-3.80608-2.32647-7.992-3.272-11.83055l.46337-.18785Z" transform="translate(-209.25 -209.25)"/>
    <path d="M558.13293,655.67627c-2.04683-14.51878-3.067-29.933,2.21746-43.96488,6.593-18.88579,13.90285-38.98751,20.74492-57.70551,5.87127-16.42782,11.5969-33.13123,13.72044-50.50776.52054-5.79128.34684-11.66813.45607-17.472.24313-11.71548.66019-23.4201.72147-35.03512.03924-12.11934-.33362-24.53335-4.08843-36.05521a27.44134,27.44134,0,0,0-2.57173-5.36273c-3.03784-4.93685-8.23889-8.25318-11.07564-13.77341a26.67969,26.67969,0,0,1-2.7229-9.51263c-.13548-4.1052-.13206-8.22186-.59245-12.01523a11.122,11.122,0,0,0-1.31572-4.62819c-.81334-1.02091-1.65812-.61053-3.08154-.2604-7.86,1.96174-11.01691,9.5168-13.2256,16.85678-.97634,4.697-1.95593,11.67007-.93323,17.18174.87641,5.8568,3.673,11.23381,6.69325,16.30741l-.41347.28115c-3.70129-4.82432-6.95882-10.14144-8.43255-16.14346-1.49222-6.02989-1.139-12.366-.22655-18.43448,1.03392-3.96954,2.11305-8.27532,4.56418-12.15848a19.30524,19.30524,0,0,1,12.38344-8.75659c5.89442-1.25142,8.355,4.27234,8.93082,9.06331.58424,3.94478.704,9.404.84746,12.29226.6822,5.62749,3.08913,9.72243,7.19287,13.71406,4.29891,4.05483,8.22411,10.03947,9.46387,15.94168,5.90955,23.19224,1.659,47.20881.23263,70.59949-.4439,5.81636-.52184,11.63359-1.18291,17.55928-.82953,5.8374-1.96039,11.60214-3.28595,17.3143A563.84184,563.84184,0,0,1,567.11,604.85624c-1.57309,4.249-4.84964,11.77742-5.96309,16.24019-2.679,11.14909-2.74489,23.03121-2.51695,34.52671l-.49706.05313Z" transform="translate(-209.25 -209.25)"/>
    <path d="M552.52222,475.65106c-1.25383-5.99778,3.40478-11.02874,8.661-13.17449l-.81531,1.33776a154.205,154.205,0,0,1-2.64194-24.05845,46.38313,46.38313,0,0,1,5.80455-23.54842l.48046.13879c-.07135,4.10843-.35779,8.019-.57319,11.92432-.2273,7.72323-1.47287,15.67039-1.201,23.38722.10019,4.2637.35846,8.56383.70741,12.86681-.57228.20288-2.09916.73387-2.68983.94257-4.13079,1.56153-7.55413,5.47931-7.24111,10.08909l-.491.0948Z" transform="translate(-209.25 -209.25)"/>
    <path class="cls-2" d="M571.95548,362.8046s.79834,7.60487,2.1447,20.68761c1.34731,9.88031,4.94015,4.04195,4.94015,4.04195s3.59284-17.066-2.71889-28.369C573.37614,353.89072,571.95548,362.8046,571.95548,362.8046Z" transform="translate(-209.25 -209.25)"/>
  </g>
  <g>
    <g>
      <path class="cls-3" d="M320.06161,460.954c-.94942-127.557,136.87338-178.28369,244.30909-145.62457,53.4101,15.48237,100.57252,56.289,110.941,112.6499a147.265,147.265,0,0,1,2.77867,33.074c-.41595-21.93682-4.59451-44.21339-14.35419-63.98117-19.16322-40.06117-58.14632-67.28552-99.94512-79.84951C455.90759,284.212,320.86023,334.16068,320.06161,460.954Z" transform="translate(-209.25 -209.25)"/>
      <path class="cls-4" d="M602.12115,617.35022a10.89432,10.89432,0,0,1,1.8642-2.46393c.6839-.7417,1.39227-1.45477,2.10919-2.1579,1.43494-1.4049,2.907-2.76629,4.39-4.1148,2.97778-2.68329,6.01587-5.294,9.07153-7.88312q9.18154-7.75168,18.62976-15.18616,2.36746-1.858,4.79975-3.64972l2.41809-1.7362a23.16092,23.16092,0,0,0,2.11663-1.879,62.59563,62.59563,0,0,0,7.23816-9.21082q3.28281-4.93651,6.10193-10.17431c1.9328-3.487,3.78839-6.98712,5.48468-10.57111a216.91592,216.91592,0,0,0,15.62293-44.813,224.80254,224.80254,0,0,0,4.12561-23.38983c.4768-3.92749.85882-7.8667,1.09442-11.80395.12109-1.96729.21014-3.93787.24554-5.88974.04157-1.91019-.03222-3.92231-.04712-5.89374a168.71671,168.71671,0,0,0-2.10534-23.52573,150.3602,150.3602,0,0,0-5.59326-22.89145,142.56037,142.56037,0,0,0-21.81012-41.54907,155.6393,155.6393,0,0,0-33.8916-32.6962,190.9318,190.9318,0,0,0-41.72059-22.36477,226.768,226.768,0,0,0-45.86181-12.37253,245.74205,245.74205,0,0,0-47.48548-3.01926,238.0491,238.0491,0,0,0-47.19079,6.24631,207.80328,207.80328,0,0,0-44.77759,16.0722,170.88569,170.88569,0,0,0-39.30914,26.693,146.69009,146.69009,0,0,0-29.51483,37.19806,148.85814,148.85814,0,0,0-15.96485,44.813,167.93337,167.93337,0,0,0-2.7352,23.75129c-.11215,1.99347-.15667,3.98581-.184,5.97845a44.61853,44.61853,0,0,0,.231,5.95349,43.37131,43.37131,0,0,0,2.36707,11.63266l.00314.00806a.24992.24992,0,0,1-.46271.1889,30.47228,30.47228,0,0,1-1.70633-5.80053c-.40072-1.97211-.68774-3.96274-.90115-5.95972a42.68521,42.68521,0,0,1-.324-6.0217c.00675-2.00708.03113-4.01346.12308-6.01508a168.91057,168.91057,0,0,1,2.50577-23.91372,150.20793,150.20793,0,0,1,15.64935-45.3804,148.53451,148.53451,0,0,1,29.49747-37.96668,172.01689,172.01689,0,0,1,39.57324-27.446A210.54468,210.54468,0,0,1,441.039,301.5116,245.7082,245.7082,0,0,1,583.71857,309.724a195.21007,195.21007,0,0,1,42.87823,22.45688,159.60133,159.60133,0,0,1,35.233,33.3678,144.85852,144.85852,0,0,1,22.77936,42.94549,161.21455,161.21455,0,0,1,7.73938,47.95041c-.01318,2.0278.03449,4.01572-.03833,6.10413-.06616,2.04644-.18683,4.07086-.33984,6.09353-.29956,4.04419-.74713,8.06476-1.29083,12.07044a229.2597,229.2597,0,0,1-4.5434,23.79193,222.36457,222.36457,0,0,1-7.03644,23.16284,190.24161,190.24161,0,0,1-9.66046,22.18927c-1.81519,3.60364-3.79559,7.12775-5.82593,10.58783-2.00091,3.49951-4.16723,6.92932-6.49072,10.24322a65.08212,65.08212,0,0,1-7.80933,9.435,25.61709,25.61709,0,0,1-2.41943,2.04047l-2.49725,1.70306c-1.62537,1.13318-3.2345,2.312-4.84961,3.48108q-9.667,7.06-19.08356,14.4939-4.70461,3.71163-9.31213,7.53961c-1.53308,1.27789-3.05548,2.569-4.53778,3.90033-.74042.66608-1.47193,1.34186-2.17475,2.0412a10.81211,10.81211,0,0,0-1.85339,2.2135l-.02088.03918a.24861.24861,0,0,1-.44336-.22485Z" transform="translate(-209.25 -209.25)"/>
      <path class="cls-3" d="M662.48682,559.01788c-.0318.1659.134.11432-.04425.20649l-.31153.20666-.62414.41138a212.39261,212.39261,0,0,1-19.32233,11.421,56.825,56.825,0,0,1-11.19369,4.47824,48.18782,48.18782,0,0,0-10.52,4.9717c-6.62422,4.01056-12.11766,9.74255-14.937,16.98363-2.11968,5.04766-4.77305,10.61191-3.63246,15.95294,1.59282,5.19333,8.84892,4.39764,13.23146,4.02336a29.66912,29.66912,0,0,0,10.33447-3.791c3.28638-1.86814,6.3761-4.22288,9.92542-6.42136a50.95065,50.95065,0,0,0,4.71287-3.162c5.94753-4.61324,11.31691-10.332,14.63637-17.12349,2.39934-5.324,3.601-11.06156,5.019-16.75019.85565-3.54356,1.66494-7.35,2.45547-10.91734l.07768-.36554.03876-.18286a.12466.12466,0,0,0,.15393.05841Zm.26489-.42407a.91227.91227,0,0,1,.10374.61651c.00129.19816-.03837.90767-.04153,1.12517a130.37374,130.37374,0,0,1-3.37927,25.40482c-2.6606,9.09242-8.92747,16.73235-16.16675,22.6334A49.21368,49.21368,0,0,1,638.102,611.905c-3.22685,1.97566-6.55113,4.3783-10.26335,6.32233a32.6562,32.6562,0,0,1-18.53706,3.87177c-3.1766-.18191-7.267-1.21838-9.44088-4.0817-4.68968-6.52716-.07712-15.50472,2.732-21.70444a35.81835,35.81835,0,0,1,6.84309-10.28929,48.5629,48.5629,0,0,1,20.97254-12.21658,54.74269,54.74269,0,0,0,11.10631-3.9315c6.947-3.22506,13.72683-7.00147,20.33133-10.89719l.31987-.19125a1.06076,1.06076,0,0,1,.58588-.1933Z" transform="translate(-209.25 -209.25)"/>
      <path class="cls-3" d="M689.25018,467.83917a.44315.44315,0,0,0-.50354-.47885c-.19973.00934-.70574.5037-.91318.63839-4.68154,3.47839-9.60414,6.91664-15.31523,8.44709-3.30981.7867-6.77487.47663-10.13688.30412a98.78879,98.78879,0,0,1-19.79664-3.68576c-4.38066-1.4878-9.18244-.11463-13.0112,2.16665-2.062,1.31987-4.31825,3.46945-3.23988,5.89a19.95337,19.95337,0,0,0,9.76319,8.85518c5.05055,2.092,10.91117,2.927,16.35636,3.94076l2.2262.29057c8.91137.72857,17.6663-3.27818,24.72062-8.48142a35.46957,35.46957,0,0,0,6.43506-8.70829,28.52612,28.52612,0,0,0,3.41512-9.17849Zm.498.04444a35.94559,35.94559,0,0,1-2.79278,9.66768,43.26885,43.26885,0,0,1-5.49562,10.18046c-6.91115,7.40371-16.85992,12.58722-27.2381,11.66027-6.86741-1.02391-13.5498-2.46716-19.9758-5.3874a24.11293,24.11293,0,0,1-11.424-11.3998c-1.859-4.1844,1.49092-8.47852,4.96622-10.31108,4.6432-2.59664,10.58323-3.90809,15.66325-1.971A115.19406,115.19406,0,0,0,667.482,475.4735c7.49751.931,14.34515-3.44027,20.06673-7.83821l.48273-.38968c.08747-.06833.145-.12253.257-.20249a.93531.93531,0,0,1,1.45972.84049Z" transform="translate(-209.25 -209.25)"/>
      <path class="cls-3" d="M624.10077,478.8407c10.97454,4.78164,23.26506,7.664,35.20224,5.815,5.97073-.86846,11.92038-2.05068,16.926-5.067,5.059-2.98419,9.024-7.68106,13.11475-12.15973l.16052.11933a63.4738,63.4738,0,0,1-5.32711,7.46772,27.43657,27.43657,0,0,1-15.56316,9.83225c-9.02281,1.93846-18.43282,2.51063-27.42252.33739a75.72206,75.72206,0,0,1-17.18135-6.16666l.09064-.17825Z" transform="translate(-209.25 -209.25)"/>
      <path class="cls-3" d="M689.663,470.18805a.98939.98939,0,0,1,1.31745-.72c.44965.18639.67351.68.9725.99175,5.851,7.12632,11.67748,14.93063,19.368,20.12558a21.84868,21.84868,0,0,0,8.98155,3.56257,64.07465,64.07465,0,0,1,7.72343,1.31815c7.67434,2.133,16.01262,6.0557,19.44116,13.78683,2.87971,8.36325-10.95532,12.0598-16.93392,12.70437-12.16166,1.65109-21.44617-2.97572-29.02221-12.34749-5.53293-6.8605-9.68381-15.13171-10.6473-23.962-.62568-5.12783-1.83881-10.27693-1.20069-15.4598Zm.49036.09772c-.40346,5.048,1.22761,10.11226,2.55905,14.94637,1.69779,6.50087,5.33946,12.10893,9.42848,17.35037,7.25413,9.33395,15.48764,16.16224,27.96628,14.96191,4.5331-.422,9.62127-1.37675,13.05713-4.35245.8218-.86616,1.32208-1.50116.91257-2.65524-2.79693-6.68151-10.18017-10.27034-16.78707-12.38883a61.50916,61.50916,0,0,0-7.38487-1.5317,22.73871,22.73871,0,0,1-9.67418-4.50365c-7.481-5.97955-12.44124-14.20781-18.63345-21.35777l-.4111-.49114c-.15351-.18008-.24127-.30975-.37592-.34576a.49681.49681,0,0,0-.65692.36789Z" transform="translate(-209.25 -209.25)"/>
      <path class="cls-3" d="M746.0683,512.28082c-10.99785-.11147-22.16985-2.49424-31.87433-7.815-9.68206-5.76367-16.125-15.57678-20.68067-25.6032a70.97806,70.97806,0,0,1-3.3468-8.84379l.18689-.07123a175.926,175.926,0,0,0,9.22693,16.27368c4.23672,6.40793,8.73938,12.91545,15.34068,16.9945a69.25231,69.25231,0,0,0,31.14661,8.86509l.00069.19992Z" transform="translate(-209.25 -209.25)"/>
      <path class="cls-3" d="M681.21655,513.29541a.98938.98938,0,0,1,1.27552-.79181c.45931.16126.7101.64169,1.0259.93643,6.23645,6.79155,12.48593,14.26138,20.45227,19.02273a21.84865,21.84865,0,0,0,9.16495,3.06,64.07856,64.07856,0,0,1,7.78453.88864c7.78068,1.705,16.32329,5.16011,20.17442,12.68969,3.3383,8.191-10.27112,12.64774-16.20478,13.62219-12.05159,2.3216-21.578-1.78423-29.66114-10.72231-5.90417-6.54378-10.50648-14.57255-11.95716-23.336-.90859-5.08527-2.40489-10.15932-2.05451-15.36961Zm.495.07043c-.12347,5.06255,1.78538,10.02883,3.38235,14.78183,2.055,6.3969,6.00143,11.79491,10.37434,16.8019,7.75951,8.91816,16.35856,15.28033,28.75148,13.39112,4.50286-.67223,9.53034-1.90717,12.79629-5.06846.7726-.9103,1.23688-1.572.76419-2.70166-3.16251-6.51648-10.733-9.69115-17.44706-11.44071a61.51733,61.51733,0,0,0-7.45828-1.12062,22.73846,22.73846,0,0,1-9.90867-3.96133c-7.80041-5.55632-13.20857-13.49738-19.787-20.29367l-.43765-.46762c-.16327-.17132-.25806-.296-.39447-.32446a.49681.49681,0,0,0-.63556.40368Z" transform="translate(-209.25 -209.25)"/>
      <path class="cls-3" d="M739.86505,552.20172c-10.98714.49743-22.274-1.26333-32.258-6.03878-9.9862-5.219-16.9625-14.66041-22.06605-24.41934a70.98751,70.98751,0,0,1-3.83117-8.645l.18268-.08148a175.907,175.907,0,0,0,10.11352,15.738c4.5848,6.16358,9.44075,12.412,16.25773,16.11941a69.25255,69.25255,0,0,0,31.58949,7.12757l.01179.19955Z" transform="translate(-209.25 -209.25)"/>
      <path class="cls-3" d="M679.95166,513.04712a1.12426,1.12426,0,0,1,1.32105.57062,1.52843,1.52843,0,0,1-.14258,1.36273,23.01558,23.01558,0,0,1-1.09565,2.21149,61.41375,61.41375,0,0,1-8.87131,11.74378,53.22364,53.22364,0,0,1-15.88284,11.78106,46.73562,46.73562,0,0,1-29.60584,3.21354,32.21559,32.21559,0,0,1-9.70428-3.62919,11.32533,11.32533,0,0,1-4.25311-4.11884,5.54932,5.54932,0,0,1,1.57313-6.923c5.818-3.94519,12.21248-7.13031,19.37881-7.64037,3.3623-.1663,6.59357.36928,9.80667.446,12.75709-.70786,25.3041-5.24729,37.47595-9.01776Zm.14514.47845c-12.51581,4.20848-24.13329,10.86935-37.36564,13.00045-3.29223.40729-6.5755.015-9.73171.26353a33.0767,33.0767,0,0,0-8.70477,2.02539c-1.30448.461-3.05769,1.2072-4.33767,1.76567a30.22016,30.22016,0,0,0-3.873,2.0174c-.72007.67008-.99331.83561-.65819,1.73564a7.48124,7.48124,0,0,0,2.65358,2.63583c5.11,3.22628,11.64594,4.526,17.7194,4.80908,16.056.71491,31.5026-8.22053,41.21137-20.72347.66621-.91827,5.71579-7.93606,3.08668-7.52952Z" transform="translate(-209.25 -209.25)"/>
      <path class="cls-3" d="M613.20386,533.05164c11.80555,2.90446,24.73442,3.38932,36.19782-.9753a105.06056,105.06056,0,0,0,16.41589-8.10509,152.39345,152.39345,0,0,0,15.268-10.33417l.13794.14484a64.88784,64.88784,0,0,1-6.82819,6.34717c-11.997,9.77155-27.21768,16.817-42.92789,16.16223a70.08622,70.08622,0,0,1-18.3237-3.0489l.06013-.19078Z" transform="translate(-209.25 -209.25)"/>
    </g>
    <g>
      <path class="cls-3" d="M679.93842,566.33264c.94931,127.557-136.87337,178.28385-244.30912,145.62457-53.41011-15.48231-100.5725-56.289-110.94105-112.64984a147.27239,147.27239,0,0,1-2.7787-33.074c.41606,21.9368,4.59453,44.21341,14.35426,63.98117,19.16309,40.06123,58.14633,67.28558,99.94511,79.84951,107.88349,33.01064,242.93082-16.93808,243.7295-143.73138Z" transform="translate(-209.25 -209.25)"/>
      <path class="cls-5" d="M397.87888,409.9364a10.89692,10.89692,0,0,1-1.86426,2.464c-.6839.7417-1.39224,1.45477-2.10916,2.15784-1.43494,1.40493-2.907,2.76635-4.39,4.11483-2.97781,2.68326-6.01584,5.294-9.07156,7.88309q-9.1815,7.75173-18.62976,15.18616-2.36746,1.85807-4.79975,3.64978l-2.418,1.73614a23.16973,23.16973,0,0,0-2.11666,1.879,62.59589,62.59589,0,0,0-7.23816,9.21085q-3.28281,4.93651-6.10193,10.17431c-1.93283,3.487-3.78836,6.98713-5.48468,10.57111a216.912,216.912,0,0,0-15.6229,44.813,224.81872,224.81872,0,0,0-4.12567,23.38977c-.47674,3.92755-.85882,7.86676-1.09436,11.80395-.12109,1.96729-.21017,3.93793-.24557,5.88977-.04157,1.91016.03222,3.92231.04712,5.89374a168.71537,168.71537,0,0,0,2.10537,23.5257,150.35962,150.35962,0,0,0,5.59323,22.89148,142.55867,142.55867,0,0,0,21.81015,41.54907,155.6393,155.6393,0,0,0,33.89157,32.69623,190.93228,190.93228,0,0,0,41.72059,22.36474,226.76872,226.76872,0,0,0,45.86184,12.3725,245.7367,245.7367,0,0,0,47.48545,3.01929,238.05069,238.05069,0,0,0,47.19079-6.24628,207.80665,207.80665,0,0,0,44.77759-16.07226,170.88569,170.88569,0,0,0,39.30914-26.693,146.68956,146.68956,0,0,0,29.51483-37.19806,148.85816,148.85816,0,0,0,15.96485-44.81292,167.924,167.924,0,0,0,2.73517-23.75129c.11218-1.99346.15667-3.98584.184-5.97845a44.61333,44.61333,0,0,0-.231-5.95349A43.36944,43.36944,0,0,0,688.16,550.83423l-.00311-.008a.24993.24993,0,0,1,.46271-.189,30.469,30.469,0,0,1,1.7063,5.80054c.40075,1.97216.6878,3.96276.90118,5.95971a42.68588,42.68588,0,0,1,.324,6.02173c-.00678,2.00708-.03113,4.01349-.12311,6.01508a168.91187,168.91187,0,0,1-2.50574,23.91375,150.20832,150.20832,0,0,1-15.64935,45.38037,148.53469,148.53469,0,0,1-29.49744,37.96668,172.01665,172.01665,0,0,1-39.5733,27.446A210.54385,210.54385,0,0,1,558.961,725.775a245.70845,245.70845,0,0,1-142.67957-8.21234,195.21167,195.21167,0,0,1-42.87826-22.45691,159.60269,159.60269,0,0,1-35.233-33.36779,144.8582,144.8582,0,0,1-22.77936-42.9455,161.2161,161.2161,0,0,1-7.73941-47.95038c.01321-2.02783-.03446-4.01575.03836-6.10412.06619-2.04645.1868-4.07087.33984-6.09357.29956-4.04419.74713-8.06476,1.29083-12.07044a229.25039,229.25039,0,0,1,4.54343-23.79193,222.36063,222.36063,0,0,1,7.03641-23.16287A190.24075,190.24075,0,0,1,330.56073,477.43c1.81519-3.60364,3.79559-7.12774,5.82593-10.58783,2.00091-3.49957,4.1672-6.92935,6.49075-10.24328a65.08016,65.08016,0,0,1,7.8093-9.435,25.62757,25.62757,0,0,1,2.41943-2.04047l2.49728-1.703c1.62537-1.13321,3.23447-2.312,4.84961-3.48108q9.66687-7.06009,19.0835-14.49393,4.70466-3.71163,9.31216-7.53958c1.53308-1.27792,3.05548-2.569,4.53778-3.90036.74045-.66607,1.47193-1.34186,2.17472-2.0412a10.8099,10.8099,0,0,0,1.85345-2.21353l.02085-.03918a.24863.24863,0,0,1,.44339.22488Z" transform="translate(-209.25 -209.25)"/>
      <path class="cls-3" d="M337.51315,468.26874c.03183-.16593-.134-.11432.04425-.20648l.31156-.20667.62414-.41138a212.39446,212.39446,0,0,1,19.3223-11.42093,56.82536,56.82536,0,0,1,11.19372-4.47828,48.189,48.189,0,0,0,10.52-4.9717c6.62428-4.0105,12.11761-9.74256,14.93709-16.9836,2.11969-5.04773,4.77295-10.61192,3.63242-15.953-1.59288-5.19334-8.84886-4.3976-13.23143-4.02336a29.66952,29.66952,0,0,0-10.33447,3.791c-3.28641,1.86814-6.37613,4.22288-9.92542,6.4214a50.92694,50.92694,0,0,0-4.7129,3.162c-5.94754,4.61316-11.31693,10.332-14.63634,17.12347-2.39936,5.324-3.601,11.06153-5.0191,16.75018-.85563,3.54349-1.66487,7.35005-2.45547,10.91731l-.07765.36557-.03876.18286a.12466.12466,0,0,0-.154-.05841Zm-.26489.42407a.91243.91243,0,0,1-.10371-.61648c-.00129-.19818.03839-.90768.04156-1.1252a130.37386,130.37386,0,0,1,3.37921-25.40482c2.66068-9.09242,8.92739-16.73237,16.16681-22.6334a49.20283,49.20283,0,0,1,5.16593-3.53125c3.22682-1.97568,6.5511-4.37833,10.26332-6.32233a32.65664,32.65664,0,0,1,18.537-3.87177c3.17664.18191,7.267,1.2184,9.44088,4.08168,4.68967,6.52709.07718,15.50475-2.732,21.70443a35.8185,35.8185,0,0,1-6.84309,10.28935,48.56376,48.56376,0,0,1-20.97251,12.21658,54.74416,54.74416,0,0,0-11.10634,3.93144c-6.947,3.22512-13.72684,7.00154-20.33136,10.89722l-.31981.19125a1.06124,1.06124,0,0,1-.58594.1933Z" transform="translate(-209.25 -209.25)"/>
      <path class="cls-3" d="M310.74982,559.44745a.44314.44314,0,0,0,.50357.47882c.19968-.00925.7057-.5037.91312-.63836,4.68155-3.47834,9.6042-6.91664,15.31529-8.44712,3.30971-.78669,6.77493-.47652,10.13682-.30412a98.79244,98.79244,0,0,1,19.79667,3.68579c4.38058,1.48779,9.18249.11466,13.01117-2.16668,2.06206-1.31987,4.31827-3.46936,3.23991-5.89a19.95348,19.95348,0,0,0-9.76319-8.85518c-5.05062-2.092-10.91117-2.927-16.35636-3.94079l-2.22623-.29051c-8.91134-.72864-17.66624,3.27816-24.72056,8.48136A35.46744,35.46744,0,0,0,314.165,550.269a28.52575,28.52575,0,0,0-3.41515,9.17849Zm-.498-.04443a35.94542,35.94542,0,0,1,2.79284-9.66769,43.27051,43.27051,0,0,1,5.49556-10.18049c6.91128-7.40359,16.85995-12.58725,27.23816-11.66024,6.86736,1.02393,13.5498,2.46717,19.97574,5.3874a24.11269,24.11269,0,0,1,11.424,11.3998c1.85894,4.18437-1.49088,8.47858-4.96622,10.31108-4.64319,2.59666-10.58327,3.908-15.66325,1.971a115.19187,115.19187,0,0,0-24.03066-5.15071c-7.49753-.93105-14.34515,3.4403-20.06673,7.83821l-.48273.38969c-.08747.06836-.145.12249-.257.20245a.9353.9353,0,0,1-1.45972-.84045Z" transform="translate(-209.25 -209.25)"/>
      <path class="cls-3" d="M375.89923,548.44592c-10.97453-4.78164-23.26507-7.66395-35.20224-5.815-5.97073.86849-11.92038,2.05074-16.926,5.067-5.05893,2.98419-9.024,7.68109-13.11472,12.15973l-.16052-.11927a63.4674,63.4674,0,0,1,5.32708-7.46775,27.43691,27.43691,0,0,1,15.56313-9.83228c9.02287-1.93839,18.4328-2.51056,27.42255-.33736a75.72129,75.72129,0,0,1,17.18135,6.16663l-.09064.17828Z" transform="translate(-209.25 -209.25)"/>
      <path class="cls-3" d="M310.33694,557.09857a.98933.98933,0,0,1-1.31741.72c-.44965-.18632-.67348-.68-.97247-.99172-5.85106-7.12628-11.67744-14.9306-19.36806-20.12558a21.84878,21.84878,0,0,0-8.98152-3.56257,64.07167,64.07167,0,0,1-7.72343-1.31815c-7.67437-2.133-16.01262-6.05572-19.44117-13.7868-2.87982-8.36316,10.95533-12.05989,16.9339-12.70443,12.16165-1.65106,21.44617,2.97577,29.02221,12.34752,5.533,6.86054,9.68376,15.13174,10.6473,23.962.62568,5.1278,1.83886,10.27688,1.20065,15.45976Zm-.49035-.09772c.40354-5.04791-1.22762-10.1123-2.559-14.94637-1.69783-6.5009-5.33943-12.109-9.42851-17.35037-7.254-9.334-15.48776-16.16225-27.96625-14.96191-4.53314.422-9.62126,1.37678-13.05716,4.35245-.82178.86614-1.322,1.50117-.91255,2.65521,2.79692,6.68158,10.18018,10.27032,16.787,12.38889a61.50634,61.50634,0,0,0,7.38487,1.53164,22.7387,22.7387,0,0,1,9.67421,4.50368c7.48092,5.97956,12.44129,14.20775,18.63342,21.35777l.4111.49111c.15354.18011.2413.30975.37595.34576a.49674.49674,0,0,0,.65689-.36786Z" transform="translate(-209.25 -209.25)"/>
      <path class="cls-3" d="M253.93169,515.0058c10.99786.11151,22.16988,2.49426,31.87437,7.815,9.682,5.76374,16.12507,15.57673,20.68061,25.60323a70.97069,70.97069,0,0,1,3.34683,8.84376l-.18689.07123a175.90848,175.90848,0,0,0-9.227-16.27368c-4.23664-6.40789-8.73929-12.9155-15.34065-16.99447a69.251,69.251,0,0,0-31.14659-8.86512l-.00072-.19992Z" transform="translate(-209.25 -209.25)"/>
      <path class="cls-3" d="M318.78348,513.99121a.98943.98943,0,0,1-1.27558.79181c-.45929-.16126-.7101-.64168-1.02587-.93643-6.23649-6.7915-12.48592-14.26139-20.45227-19.02273a21.84823,21.84823,0,0,0-9.165-3.06,64.07833,64.07833,0,0,1-7.78453-.88864c-7.78069-1.705-16.32322-5.16016-20.17445-12.68969-3.3382-8.191,10.27107-12.64768,16.20481-13.62219,12.05157-2.32163,21.57805,1.78424,29.66111,10.72231,5.90422,6.54375,10.50644,14.57253,11.95722,23.33593.90854,5.08533,2.40482,10.15939,2.05451,15.36964Zm-.495-.07043c.12349-5.06253-1.78542-10.02883-3.38235-14.78183-2.055-6.397-6.00148-11.79485-10.37434-16.80193-7.75962-8.91816-16.35847-15.28024-28.75148-13.39111-4.50285.67226-9.53036,1.90713-12.79626,5.06848-.77261.91026-1.2369,1.572-.76422,2.70163,3.16247,6.5165,10.733,9.69117,17.44706,11.44074a61.50925,61.50925,0,0,0,7.45831,1.12062,22.73825,22.73825,0,0,1,9.90861,3.96133c7.80045,5.55631,13.20856,13.49737,19.787,20.29367l.43765.46762c.16324.17133.25809.296.3945.32446a.49677.49677,0,0,0,.63553-.40368Z" transform="translate(-209.25 -209.25)"/>
      <path class="cls-3" d="M260.13492,475.08487c10.98721-.49743,22.27392,1.26341,32.258,6.03878,9.98615,5.219,16.96245,14.66041,22.066,24.41937a70.98358,70.98358,0,0,1,3.83117,8.645l-.18268.08148a175.91366,175.91366,0,0,0-10.11352-15.738c-4.58481-6.16359-9.44078-12.412-16.25773-16.11937a69.25185,69.25185,0,0,0-31.58952-7.12764l-.01179-.19955Z" transform="translate(-209.25 -209.25)"/>
      <path class="cls-3" d="M320.04837,514.2395a1.12427,1.12427,0,0,1-1.32108-.57062,1.52821,1.52821,0,0,1,.14258-1.36273,23.03571,23.03571,0,0,1,1.09565-2.21151,61.41419,61.41419,0,0,1,8.87128-11.74376,53.22448,53.22448,0,0,1,15.88284-11.781,46.73545,46.73545,0,0,1,29.6059-3.21357,32.21622,32.21622,0,0,1,9.70425,3.62919,11.32533,11.32533,0,0,1,4.25311,4.11884,5.54931,5.54931,0,0,1-1.57313,6.923c-5.818,3.9452-12.21251,7.13028-19.37881,7.64041-3.36229.16625-6.5936-.36933-9.80664-.446-12.7571.70787-25.3041,5.24726-37.476,9.01775Zm-.14517-.47845c12.51579-4.20845,24.13326-10.86936,37.36561-13.00045,3.29228-.40729,6.5755-.015,9.73171-.26353a33.07972,33.07972,0,0,0,8.7048-2.02536c1.30448-.461,3.0577-1.20718,4.33767-1.7657a30.21889,30.21889,0,0,0,3.87305-2.0174c.7201-.67.99325-.83563.65819-1.73564a7.48177,7.48177,0,0,0-2.65358-2.6358c-5.11-3.22634-11.646-4.526-17.7194-4.80914-16.056-.71487-31.50264,8.22059-41.21137,20.72353-.66622.91825-5.71579,7.936-3.08668,7.52949Z" transform="translate(-209.25 -209.25)"/>
      <path class="cls-3" d="M386.79617,494.235c-11.80552-2.90449-24.73444-3.38941-36.19785.97529a105.05352,105.05352,0,0,0-16.41589,8.10509,152.39262,152.39262,0,0,0-15.268,10.33414l-.13794-.14484a64.89153,64.89153,0,0,1,6.82819-6.3472c11.997-9.77148,27.21768-16.817,42.92789-16.1622a70.08679,70.08679,0,0,1,18.32373,3.0489l-.06013.19082Z" transform="translate(-209.25 -209.25)"/>
    </g>
  </g>
</svg>
