<svg id="Calque_1" data-name="Calque 1" xmlns="http://www.w3.org/2000/svg" xmlns:xlink="http://www.w3.org/1999/xlink" viewBox="0 0 293.85523 259.61649">
  <defs>
    <style>
      .cls-1 {
        fill: #666;
      }

      .cls-2 {
        fill: #ff1d25;
      }

      .cls-3 {
        fill: #39b54a;
      }

      .cls-4 {
        fill: url(#Dégradé_sans_nom_28);
      }

      .cls-5 {
        fill: url(#Dégradé_sans_nom_30);
      }
    </style>
    <linearGradient id="Dégradé_sans_nom_28" data-name="Dégradé sans nom 28" x1="35.87143" y1="117.73244" x2="264.69378" y2="117.73244" gradientUnits="userSpaceOnUse">
      <stop offset="0" stop-color="#666"/>
      <stop offset="0.33013" stop-color="#656965"/>
      <stop offset="0.52863" stop-color="#607162"/>
      <stop offset="0.69235" stop-color="#587f5d"/>
      <stop offset="0.83713" stop-color="#4c9356"/>
      <stop offset="0.96814" stop-color="#3dad4d"/>
      <stop offset="1" stop-color="#39b54a"/>
    </linearGradient>
    <linearGradient id="Dégradé_sans_nom_30" data-name="Dégradé sans nom 30" x1="36.64706" y1="185.87237" x2="265.4694" y2="185.87237" gradientUnits="userSpaceOnUse">
      <stop offset="0" stop-color="#39b54a"/>
      <stop offset="0.03186" stop-color="#3dad4d"/>
      <stop offset="0.16287" stop-color="#4c9356"/>
      <stop offset="0.30765" stop-color="#587f5d"/>
      <stop offset="0.47137" stop-color="#607162"/>
      <stop offset="0.66987" stop-color="#656965"/>
      <stop offset="1" stop-color="#666"/>
    </linearGradient>
  </defs>
  <g id="hand">
    <path class="cls-1" d="M132.14722,244.05046c-.66764-3.92944-1.50809-7.82269-2.53058-11.65126-1.02164-3.76614-2.02426-7.56367-4.08162-10.89328-4.08424-6.71045-8.76143-13.28206-12.66962-20.28529A160.56887,160.56887,0,0,1,102.82266,179.358a157.12659,157.12659,0,0,1-6.88-22.95915c-2.36419-8.77705-7.92921-28.73124-2.73649-36.639a8.62686,8.62686,0,0,1,2.12087-1.90936c4.34092-3.3604,9.432-6.58392,14.847-2.9629,8.69292,5.73646,15.75963,13.6367,21.76177,22.059,3.53381,5.2628,7.87238,11.31265,6.89195,17.98011l-.28761-.08616c.09731-8.06947-7.47256-15.64967-12.35577-21.54267A90.4543,90.4543,0,0,0,109.79,118.45869c-5.12145-3.882-7.982-1.27234-12.67747,1.889-6.775,3.01565-1.11405,29.2763.22793,35.74283,2.13673,15.83437,9.31383,30.44491,17.7389,43.8333,4.19752,7.11215,10.3233,15.7812,13.78919,23.25792a65.93879,65.93879,0,0,1,3.134,14.84352c.22661,1.99419.39949,3.99112.4436,6.00005l-.29893.02519Z" transform="translate(-3.73344 -21.99416)"/>
    <path class="cls-1" d="M97.58157,132.23914c2.046,4.73988,7.72028,5.68291,12.24972,6.46339l.829.11981.36382.65647c3.39939,6.21526,7.09242,12.566,12.27026,17.4908a11.42419,11.42419,0,0,0,6.76856,3.20418c.59223.04267,1.32874-.06573,1.5542-.52811l.29462.05662c-.26218.7989-1.14626.93961-1.84415.99648-4.952.14654-8.94044-3.44925-12.05171-6.85653a97.76113,97.76113,0,0,1-9.689-12.82813l1.19254.7761c-5.162-.63275-12.14763-3.47435-12.23435-9.50453l.29654-.04655Z" transform="translate(-3.73344 -21.99416)"/>
    <path class="cls-2" d="M140.57625,160.66887a2.89057,2.89057,0,0,1-1.18946,2.93407c-1.70919,1.18394-5.36907,1.50489-6.82417.59605-1.46226-.91522-4.55085-6.43183-7.12316-10.93787-1.45068-2.54492-1.73946-4.17925.62874-5.90205,1.73086-1.26151,4.79457-4.05017,7.02654-2.5886C136.14382,146.76624,139.68248,156.1329,140.57625,160.66887Z" transform="translate(-3.73344 -21.99416)"/>
    <path class="cls-1" d="M108.46149,114.41855c-.13852-5.837,2.84788-12.84621,9.0855-14.2177,3.545-.7082,7.56167-1.45578,10.58047.90677,1.78911,1.74466,2.97086,3.87385,4.47106,5.82211,2.21755,3.07853,4.48888,6.094,6.81959,9.08242a169.36166,169.36166,0,0,1,23.40056,38.42558l.06983.162.03371.07834c.00374.00973.01366.0296.00208.01216-2.85241,1.44592-.77228.43831-1.41626.74421l-.00579-.01567,1.42844-.71417a7.05921,7.05921,0,0,1-.43313,6.6445l-.25587-.15666a6.65676,6.65676,0,0,0-.73944-5.77366l1.42847-.71418.01387.02394c-.63914.31639,1.453-.66916-1.40121.77809l-.04036-.06544-.04961-.0777-.0961-.15041c-.76357-1.18713-2.0548-3.27062-2.82286-4.4914-4.98915-7.91684-9.71824-16.17844-14.43386-24.2393-4.62821-8.15414-9.31753-16.48678-16.33828-22.8619a5.15342,5.15342,0,0,0-4.25493-1.45855c-3.44615.24295-7.15271.27-9.6911,2.80593-2.50879,2.39623-4.05339,5.87054-5.0559,9.47664l-.29888-.026Z" transform="translate(-3.73344 -21.99416)"/>
    <path class="cls-1" d="M136.4118,145.21721c6.5449,4.4585,9.29435,12.04721,14.66207,17.60854.71249.67426,1.50052,1.63,2.49054,1.75656l.04565.29644c-1.24753.113-2.194-.732-3.14593-1.35768a52.92172,52.92172,0,0,1-7.23771-6.92114,34.52705,34.52705,0,0,1-4.28245-5.06854,22.45383,22.45383,0,0,1-2.77844-6.14289l.24627-.17129Z" transform="translate(-3.73344 -21.99416)"/>
    <path class="cls-2" d="M163.38576,165.62164l-4.51613,3.19772a2.12906,2.12906,0,0,1-2.93454-.674l-7.4886-11.95418c-1.42793-2.27942-1.16366-4.35454,1.24936-6.285l1.93041-1.44781c1.59679-.7984,2.85871-.97685,5.47716,2.00838l6.95634,12.22031A2.12905,2.12905,0,0,1,163.38576,165.62164Z" transform="translate(-3.73344 -21.99416)"/>
    <path class="cls-1" d="M129.61617,104.40511c9.70448,8.36483,17.7615,20.017,25.57642,30.12918,2.68629,3.47473,5.32188,6.99089,7.96757,10.49879.91031.35676,3.9596,1.996,5.6599,1.18581l.13957.26567a3.38364,3.38364,0,0,1-1.61463.38209,10.95328,10.95328,0,0,1-4.84522-1.29406c-2.90926-3.29268-5.82868-6.577-8.69749-9.90264-4.99186-5.92971-12.55168-13.89167-17.074-20.06719a111.00127,111.00127,0,0,1-7.34447-11.00787l.23234-.18978Z" transform="translate(-3.73344 -21.99416)"/>
    <path class="cls-1" d="M128.07988,102.68926c-1.58713-4.85107-1.09588-11.00855,3.04858-14.54282a10.886,10.886,0,0,1,9.27216-2.41227,17.86587,17.86587,0,0,1,10.15945,6.66222c2.58086,3.01747,4.97365,6.14337,7.387,9.284a128.57137,128.57137,0,0,1,12.41045,20.16823,107.01628,107.01628,0,0,1,4.6409,10.93387c.63246,2.054,1.43458,3.75294,1.44033,6.04958-.2121,2.01991-.79942,4.27771-2.53815,5.52841l-.17445-.24416a7.50549,7.50549,0,0,0,1.17829-5.3036,25.49964,25.49964,0,0,0-2.0878-5.12408c-3.47276-6.961-7.107-13.87512-10.67764-20.79733-3.74506-6.68808-6.99259-14.2302-12.297-19.839-4.60605-5.21472-14.28683-7.30289-18.8855-1.10437a12.69315,12.69315,0,0,0-2.10975,4.95631,26.05892,26.05892,0,0,0-.47127,5.7334l-.2955.0517Z" transform="translate(-3.73344 -21.99416)"/>
    <path class="cls-2" d="M176.82054,147.93386l-5.82735,3.34678a1.97794,1.97794,0,0,1-2.67416-.82057l-6.73288-12.694a4.3713,4.3713,0,0,1,1.81348-5.91l1.32793-.70433a4.79765,4.79765,0,0,1,6.4864,1.99035l6.42715,12.11761A1.978,1.978,0,0,1,176.82054,147.93386Z" transform="translate(-3.73344 -21.99416)"/>
    <path class="cls-1" d="M147.84851,90.47666c-.34682-5.00479.578-10.46158,3.99151-14.4,2.87226-3.04774,7.43957-4.86383,11.67633-3.47055,4.43982,1.72087,6.67205,6.28548,8.89085,10.10651a178.873,178.873,0,0,1,9.1253,17.485c.98345,2.60544,1.35967,6.02411-.84408,8.28745a10.575,10.575,0,0,1-13.16047,1.27532,22.91716,22.91716,0,0,1-5.00576-4.78305,43.99285,43.99285,0,0,1-7.0394-11.26467,18.12173,18.12173,0,0,1-1.43563-6.49116l.29816-.03313c1.70081,6.22282,6.10209,11.19657,10.35338,15.86148,2.50626,2.71,5.739,5.80611,9.64051,5.26014a8.20412,8.20412,0,0,0,4.67781-2.25219c1.86859-3.1392-.89516-7.86868-1.88718-11.20727a49.48254,49.48254,0,0,0-5.555-11.63449c-3.07438-4.98127-7.98062-10.55433-14.31-7.692a10.1707,10.1707,0,0,0-4.17458,2.74906c-2.83962,3.36636-4.10932,7.87582-4.94178,12.20948l-.29992-.00595Z" transform="translate(-3.73344 -21.99416)"/>
    <path class="cls-2" d="M174.0951,94.8364h.57081a5.09047,5.09047,0,0,1,5.09047,5.09047v10.4789a3.28038,3.28038,0,0,1-3.28038,3.28038h-4.16551a3.30586,3.30586,0,0,1-3.30586-3.30586V99.92687a5.09047,5.09047,0,0,1,5.09047-5.09047Z" transform="translate(-31.76508 64.70868) rotate(-25.91724)"/>
    <path class="cls-1" d="M179.515,112.4481q2.42031,4.20287,4.59261,8.53367a22.34857,22.34857,0,0,1,2.08778,4.35138,13.75843,13.75843,0,0,1,.55869,4.97127l-.27805.11272c-2.607-2.20938-3.85217-5.30139-4.59244-8.53373q-1.46569-4.61688-2.64662-9.32259l.278-.11272Z" transform="translate(-3.73344 -21.99416)"/>
    <path class="cls-1" d="M185.10782,244.05377c-1.20147-8.60741-1.835-17.73869,1.30259-26.0579l1.72262-4.9099c3.36072-9.5476,7.12146-19.84919,10.5803-29.28175,4.69564-12.95524,9.09514-26.33483,8.39513-40.28288-.01835-13.56073,1.87092-27.80956-1.64455-40.93305a16.90821,16.90821,0,0,0-4.99432-8.08869,19.15742,19.15742,0,0,1-3.452-4.43528c-2.20468-3.93155-1.43685-8.609-1.96887-12.75908a6.634,6.634,0,0,0-.773-2.733.74093.74093,0,0,0-.56723-.34621,3.08836,3.08836,0,0,0-1.24173.19209c-7.45933,1.92611-9.36267,13.58775-8.38459,20.15179a27.17567,27.17567,0,0,0,3.96012,9.66422l-.24809.16868a26.27625,26.27625,0,0,1-5.00345-9.5657,25.8654,25.8654,0,0,1,2.56465-18.13735c1.6979-3.15678,8.21618-7.52413,11.16691-3.91417,2.26064,3.39668,1.64421,7.78028,2.00912,11.51264a13.23065,13.23065,0,0,0,4.24716,7.98733c11.44857,10.10735,6.42178,37.25989,5.74046,51.29695a98.58847,98.58847,0,0,1-2.6516,20.66639A349.14557,349.14557,0,0,1,188.558,218.78148a42.53973,42.53973,0,0,0-3.03257,14.88706c-.22269,3.434-.20977,6.89407-.11934,10.3534l-.29831.03183Z" transform="translate(-3.73344 -21.99416)"/>
    <path class="cls-1" d="M181.78305,137.374c-1.69159-3.5342,1.48579-7.50429,4.96362-8.27253l-.80418,1.31972c.07943-2.37332.44123-4.79592-.00074-7.16245-.97944-4.70155-1.62853-9.635-.4167-14.36813a21.87412,21.87412,0,0,1,2.78141-6.74276l.28821.08326a103.76124,103.76124,0,0,1-.44248,10.52952c-.3031,3.38466-.95393,7.06066-1.18259,10.43182-.17663,2.66553.9891,5.1175,1.62373,7.64764-.88853.54848-1.93357,1.10815-2.83608,1.602a7.46391,7.46391,0,0,0-3.67963,4.875l-.29457.05692Z" transform="translate(-3.73344 -21.99416)"/>
    <path class="cls-2" d="M193.30068,70.50267s.47309,4.50652,1.27092,12.25914c.79839,5.85491,2.92745,2.39519,2.92745,2.39519s2.12906-10.113-1.61117-16.811C194.14254,65.22046,193.30068,70.50267,193.30068,70.50267Z" transform="translate(-3.73344 -21.99416)"/>
  </g>
  <g>
    <g>
      <path class="cls-3" d="M43.99179,120.57956C42.823,29.96013,161.74755,3.99642,224.06742,51.66523a82.66485,82.66485,0,0,1,32.2273,68.91517c.00306.12632-.20328.12423-.19957-.00152a93.979,93.979,0,0,0-2.25749-19.392,82.23544,82.23544,0,0,0-30.99317-47.93871c-40.83527-30.6137-105.16559-31.68845-146.06462-.64676-22.01572,16.68476-32.14119,41.40447-32.78808,67.9782Z" transform="translate(-3.73344 -21.99416)"/>
      <path class="cls-4" d="M211.17464,213.25671a6.45768,6.45768,0,0,1,1.10475-1.461c.4052-.43968.82486-.86237,1.24962-1.27913.85013-.83282,1.72227-1.63983,2.6009-2.43918,1.76427-1.59051,3.56429-3.138,5.37474-4.67265q5.43993-4.5948,11.038-9.00162,1.40271-1.10142,2.84406-2.16342a19.75931,19.75931,0,0,0,2.6855-2.14314,37.38914,37.38914,0,0,0,4.28592-5.45827c1.29991-1.94737,2.49772-3.95937,3.61636-6.02734,1.145-2.06646,2.24407-4.14046,3.24881-6.26421A128.57288,128.57288,0,0,0,258.477,145.7933a133.204,133.204,0,0,0,2.44318-13.85891,91.76835,91.76835,0,0,0,.76461-13.975,93.30951,93.30951,0,0,0-4.5621-27.50028,84.46917,84.46917,0,0,0-12.92088-24.616,92.21456,92.21456,0,0,0-20.07869-19.3726A113.12867,113.12867,0,0,0,199.40446,33.218a140.93244,140.93244,0,0,0-55.31013-9.12254c-18.79816.62794-37.61145,4.826-54.495,13.22193A101.25962,101.25962,0,0,0,66.30644,53.13248a86.91951,86.91951,0,0,0-17.49,22.04009,88.206,88.206,0,0,0-9.46162,26.55327,99.509,99.509,0,0,0-1.62167,14.074c-.06654,1.18126-.093,2.36184-.10927,3.54258a26.45139,26.45139,0,0,0,.13655,3.52769,25.69992,25.69992,0,0,0,1.40178,6.89284l.00413.01053a.14993.14993,0,1,1-.27923.1093l-.00064-.00167c-1.7011-4.50253-1.87915-9.378-1.66565-14.10256a100.09534,100.09534,0,0,1,1.484-14.17145,89.0161,89.0161,0,0,1,9.27233-26.89374A88.02615,88.02615,0,0,1,65.45673,52.21209,101.9376,101.9376,0,0,1,88.90809,35.94526c17.04883-8.64375,36.06679-13.04283,55.11326-13.82879a143.31138,143.31138,0,0,1,56.2549,8.8325,115.6952,115.6952,0,0,1,25.41326,13.30779A94.59239,94.59239,0,0,1,246.573,64.0323a85.84887,85.84887,0,0,1,13.50243,25.45384,94.71371,94.71371,0,0,1,3.59625,42.80358,135.87753,135.87753,0,0,1-2.69381,14.1002,123.4099,123.4099,0,0,1-9.89812,26.8769c-1.07605,2.13552-2.25008,4.224-3.45357,6.27424-1.18843,2.07225-2.46863,4.10747-3.84988,6.06908a38.878,38.878,0,0,1-4.6287,5.59273,14.49971,14.49971,0,0,1-1.44441,1.20323c-.5309.40233-.97774.65922-1.47,1.01661l-2.874,2.0622q-5.72919,4.18233-11.31024,8.58629-2.78835,2.19879-5.51911,4.46653c-.90867.757-1.811,1.52183-2.68956,2.31051-.43885.39456-.8724.79487-1.28894,1.20912a6.40757,6.40757,0,0,0-1.09828,1.31077l-.01253.02353a.14917.14917,0,0,1-.266-.135Z" transform="translate(-3.73344 -21.99416)"/>
      <path class="cls-3" d="M246.9471,178.6922c-.01814.09883.08166.06729-.02452.12193l-.18488.12206-.37038.24295a132.13685,132.13685,0,0,1-11.45287,6.762,33.67115,33.67115,0,0,1-6.63,2.661,24.16639,24.16639,0,0,0-17.262,19.44334c-1.15709,5.65861,3.58538,5.88608,7.86245,5.38689,4.61439-.66722,8.06493-3.53206,11.99754-6.05176A30.32744,30.32744,0,0,0,242.345,195.37048c2.19183-5.165,3.15837-10.91834,4.44068-16.38972l.04612-.21663.0231-.10834a.07476.07476,0,0,0,.09221.03641Zm.15893-.25444c.11551.14594.048.41359.05516.58952.00512.25014-.0522,1.0647-.05452,1.33333-.57448,6.52466-.73944,13.52995-4.21332,19.311a30.7526,30.7526,0,0,1-10.38527,10.37551c-3.92594,2.524-8.35848,5.61007-13.28618,6.02355-5.987.65143-11.93948-1.133-10.33754-8.42231a35.79313,35.79313,0,0,1,4.29635-10.07256,23.83456,23.83456,0,0,1,8.10353-7.30783c4.08272-2.56329,8.97764-3.02952,13.23894-5.13725a132.88568,132.88568,0,0,0,12.04467-6.46427,1.06648,1.06648,0,0,1,.53818-.22871Z" transform="translate(-3.73344 -21.99416)"/>
      <path class="cls-3" d="M262.80573,124.65945a.26075.26075,0,0,0-.29627-.28181c-.12357.01213-.35538.25077-.54031.37788-2.78611,2.0695-5.66354,4.08024-9.07586,5.00806a21.09157,21.09157,0,0,1-6.00825.18118,59.29628,59.29628,0,0,1-11.73385-2.17874,9.15815,9.15815,0,0,0-9.46549,2.96478c-.68,1.10506-.14829,1.90782.51814,2.86682,2.89777,4.47819,8.455,5.34868,13.36061,6.24994l1.4404.25138c5.47982.95237,10.98176-1.34236,15.44374-4.45247a18.02674,18.02674,0,0,0,4.33113-5.54977,16.88077,16.88077,0,0,0,2.026-5.43725Zm.29882.02667a28.29572,28.29572,0,0,1-4.908,11.7667c-4.10236,4.391-9.98589,7.4788-16.148,6.92372-5.03237-.84936-10.35331-1.76534-14.585-4.89161-3.93955-3.344-6.78093-7.85879-1.08408-11.19652,2.75475-1.53992,6.27859-2.31669,9.29166-1.1672a67.48379,67.48379,0,0,0,14.23718,3.05694c4.44192.55421,8.50026-2.03438,11.88994-4.64069l.286-.23093a.79756.79756,0,0,1,.38116-.21407.55661.55661,0,0,1,.6391.59366Z" transform="translate(-3.73344 -21.99416)"/>
      <path class="cls-3" d="M224.21959,131.14262c9.52931,4.18472,21.35233,5.074,30.65628.13383,2.9413-1.6666,5.35118-4.36478,7.95445-6.88423l.16052.11931c-2.53226,4.89055-6.62666,9.59978-12.31293,10.61832a37.29363,37.29363,0,0,1-16.38989.00858,44.97377,44.97377,0,0,1-10.15907-3.81752l.09064-.17829Z" transform="translate(-3.73344 -21.99416)"/>
      <path class="cls-3" d="M263.05042,126.05118a.58811.58811,0,0,1,.78314-.428c.27232.1185.39584.39788.577.5883,3.47062,4.21824,6.9278,8.84129,11.47863,11.92327a12.54011,12.54011,0,0,0,5.321,2.10584c5.97059.6235,13.33216,2.972,16.10845,8.9553,1.1652,2.65641-1.68926,4.98622-3.81068,5.86723a22.089,22.089,0,0,1-12.7254,1.51366c-8.49587-1.9558-14.19845-10.33335-16.49235-18.29474-.65638-4.06944-1.59937-8.10993-1.23977-12.23089Zm.29422.05863c-.20989,3.91922,1.23093,8.02671,2.47333,11.68023a38.38308,38.38308,0,0,0,6.51623,9.67909c2.50139,2.74755,5.434,5.35506,9.077,6.205a19.14556,19.14556,0,0,0,11.12351-.80464c1.15732-.53722,3.2074-1.47052,2.74973-2.90314-1.81657-4.31012-6.9864-6.62741-11.361-7.70531-3.05721-.4685-6.28725-1.1884-8.6858-3.21371-4.41488-3.5178-7.39735-8.4343-11.0405-12.65884-.15941-.168-.33544-.45351-.46568-.49535a.29258.29258,0,0,0-.38684.21671Z" transform="translate(-3.73344 -21.99416)"/>
      <path class="cls-3" d="M296.47723,151.03574c-17.58155-.04434-28.59524-7.95368-33.1647-25.07005l.18689-.07112c1.89005,3.22619,3.744,6.40717,5.77591,9.44242,2.5472,3.7279,5.03613,7.6143,8.89249,10.03158a41.31085,41.31085,0,0,0,18.3087,5.46723l.00071.19994Z" transform="translate(-3.73344 -21.99416)"/>
      <path class="cls-3" d="M258.04514,151.596a.58812.58812,0,0,1,.75827-.47065c.27844.10325.41724.37536.60864.55546,3.69876,4.01971,7.40653,8.44431,12.121,11.26967a12.53986,12.53986,0,0,0,5.42938,1.80812c5.996.29207,13.4762,2.22956,16.57941,8.05,1.31046,2.58783-1.41071,5.07207-3.48007,6.06914a22.08905,22.08905,0,0,1-12.62215,2.21567c-8.59111-1.48261-14.74856-9.53165-17.47965-17.35391-.88055-4.02687-2.04579-8.009-1.9148-12.14351Zm.297.04225c.00734,3.92482,1.6733,7.94628,3.116,11.52544a38.38345,38.38345,0,0,0,7.042,9.3036c2.64964,2.60489,5.722,5.04609,9.40659,5.69307a19.14575,19.14575,0,0,0,11.06192-1.41908c1.12576-.60047,3.1211-1.64578,2.58482-3.05089-2.05235-4.203-7.34249-6.23056-11.7701-7.06469-3.07844-.29857-6.3434-.83858-8.85036-2.728-4.60281-3.26806-7.85279-8.012-11.7242-12.02836-.16848-.159-.36-.43426-.49239-.46882a.29257.29257,0,0,0-.37424.23777Z" transform="translate(-3.73344 -21.99416)"/>
      <path class="cls-3" d="M292.80356,174.69217c-17.55707.92882-28.99159-6.3588-34.50144-23.196l.18265-.08137c2.06574,3.11666,4.09287,6.19016,6.28967,9.10828,2.74965,3.58121,5.44986,7.32389,9.43409,9.524a41.31136,41.31136,0,0,0,18.58324,4.44552l.01179.19958Z" transform="translate(-3.73344 -21.99416)"/>
      <path class="cls-3" d="M257.29688,151.44734c3.239-.331-4.40539,8.69567-5.20762,9.4175a31.58484,31.58484,0,0,1-9.41583,6.97555,27.53062,27.53062,0,0,1-17.54433,1.92223c-3.64424-.60221-11.90377-4.14789-7.3435-8.72012,3.47357-2.35183,7.216-4.211,11.49263-4.53318,2.15254-.101,4.0638.242,5.81122.267,7.56314-.40564,14.98449-3.09433,22.20743-5.329Zm.08712.28708c-7.41567,2.50074-14.302,6.43909-22.14114,7.71849-4.06618.2714-7.206-.21579-10.91994,1.35485a28.76226,28.76226,0,0,0-4.86157,2.23874,1.39469,1.39469,0,0,0-.44348.51742.62509.62509,0,0,0,.05617.49179c1.28,2.03112,4.20019,2.94345,6.54758,3.616a26.79986,26.79986,0,0,0,21.47121-3.80653A29.96019,29.96019,0,0,0,257.124,153.78292c.19975-.51718,1.35039-2.13537.26-2.0485Z" transform="translate(-3.73344 -21.99416)"/>
      <path class="cls-3" d="M217.756,163.26459c6.98823,1.599,14.60957,1.76455,21.32677-.85917,6.70925-2.74468,12.80943-6.59409,18.85854-10.63609l.13788.14473c-7.20922,8.41361-18.32777,14.024-29.51464,13.51409a41.37232,41.37232,0,0,1-10.86867-1.97281l.06012-.19075Z" transform="translate(-3.73344 -21.99416)"/>
    </g>
    <g>
      <path class="cls-3" d="M257.33032,183.02525c1.16879,90.61943-117.75577,116.58315-180.07564,68.91433a82.6649,82.6649,0,0,1-32.2273-68.91516c-.003-.12632.20326-.12425.19958.00151A93.979,93.979,0,0,0,47.48445,202.418,82.23537,82.23537,0,0,0,78.47763,250.3567c40.83528,30.6137,105.16557,31.68845,146.06461.64675,22.01575-16.6848,32.14115-41.40439,32.78808-67.9782Z" transform="translate(-3.73344 -21.99416)"/>
      <path class="cls-5" d="M90.14748,90.34809a6.45843,6.45843,0,0,1-1.10476,1.461c-.40519.43968-.82486.86238-1.24961,1.27914-.85015.83282-1.72228,1.63982-2.60091,2.43916-1.76427,1.59052-3.56429,3.138-5.37475,4.67267q-5.43993,4.5948-11.038,9.00162-1.40269,1.10142-2.84405,2.1634a19.76013,19.76013,0,0,0-2.6855,2.14315,37.388,37.388,0,0,0-4.28592,5.45828c-1.29991,1.94737-2.49773,3.95936-3.61636,6.02734-1.145,2.06644-2.24407,4.14045-3.24882,6.2642a128.57405,128.57405,0,0,0-9.25371,26.55344,133.20109,133.20109,0,0,0-2.44317,13.85892,91.76816,91.76816,0,0,0-.76462,13.975,93.31022,93.31022,0,0,0,4.56211,27.50028,84.46948,84.46948,0,0,0,12.92088,24.616A92.21435,92.21435,0,0,0,77.199,257.13425a113.12844,113.12844,0,0,0,24.71864,13.25253,140.93265,140.93265,0,0,0,55.31013,9.12253c18.79814-.62793,37.61145-4.826,54.495-13.22193a101.26011,101.26011,0,0,0,23.29289-15.815,86.91956,86.91956,0,0,0,17.49-22.0401,88.2055,88.2055,0,0,0,9.46161-26.55326,99.50934,99.50934,0,0,0,1.62167-14.074c.06656-1.18126.093-2.36183.10928-3.54259a26.453,26.453,0,0,0-.13656-3.52768,25.6996,25.6996,0,0,0-1.40177-6.89284l-.00415-.01053a.14993.14993,0,0,1,.27924-.10929l.00064.00166c1.70111,4.50253,1.87915,9.378,1.66565,14.10255a100.09577,100.09577,0,0,1-1.484,14.17147,89.01611,89.01611,0,0,1-9.27232,26.89373,88.026,88.026,0,0,1-17.47959,22.50126A101.93692,101.93692,0,0,1,212.414,267.65955c-17.04883,8.64376-36.06679,13.04284-55.11325,13.82879a143.31183,143.31183,0,0,1-56.25492-8.83249,115.69645,115.69645,0,0,1-25.41325-13.3078,94.59171,94.59171,0,0,1-20.88353-19.77554,85.84941,85.84941,0,0,1-13.50243-25.45383,94.71361,94.71361,0,0,1-3.59626-42.80359,135.86969,135.86969,0,0,1,2.69383-14.1002A123.40909,123.40909,0,0,1,50.24232,130.338c1.07605-2.13553,2.25007-4.224,3.45356-6.27425,1.18844-2.07226,2.46864-4.10747,3.84988-6.06907a38.87761,38.87761,0,0,1,4.6287-5.59273,14.49825,14.49825,0,0,1,1.44442-1.20323c.53089-.40234.97774-.65924,1.47-1.01661l2.874-2.06221q5.72917-4.18232,11.31024-8.58628,2.78835-2.19882,5.51911-4.46655c.90866-.757,1.811-1.52181,2.68955-2.31049.43887-.39457.87242-.79487,1.28895-1.20913a6.40788,6.40788,0,0,0,1.09827-1.31078l.01253-.02352a.14917.14917,0,0,1,.266.13494Z" transform="translate(-3.73344 -21.99416)"/>
      <path class="cls-3" d="M54.375,124.91262c.01813-.09885-.08167-.06729.0245-.12194l.18488-.12205.37039-.24295a132.137,132.137,0,0,1,11.45287-6.76205,33.6725,33.6725,0,0,1,6.63-2.661,28.19772,28.19772,0,0,0,11.52709-7.26844,28.251,28.251,0,0,0,5.73492-12.1749c1.15713-5.65859-3.58538-5.8861-7.86243-5.38688-4.61439.6672-8.06494,3.532-11.99755,6.05176a30.32719,30.32719,0,0,0-11.46252,12.01013c-2.19186,5.165-3.15837,10.91834-4.44069,16.38971l-.04613.21664-.02309.10833a.07476.07476,0,0,0-.0922-.0364Zm-.15894.25443c-.11551-.14595-.048-.41359-.05516-.58952-.00513-.25014.0522-1.0647.05452-1.33333.57447-6.52467.73945-13.52995,4.21331-19.311A30.75245,30.75245,0,0,1,68.814,93.55768c3.92592-2.524,8.35846-5.61009,13.28617-6.02355,5.98695-.65147,11.93947,1.133,10.33755,8.4223A35.79381,35.79381,0,0,1,88.14139,106.029a23.8343,23.8343,0,0,1-8.10352,7.30782c-4.08272,2.56329-8.97764,3.02953-13.23894,5.13725a132.88585,132.88585,0,0,0-12.04468,6.46427,1.06623,1.06623,0,0,1-.53817.22871Z" transform="translate(-3.73344 -21.99416)"/>
      <path class="cls-3" d="M38.51637,178.94536a.26075.26075,0,0,0,.29627.28181c.12356-.01213.35539-.25078.54031-.37788,2.7861-2.0695,5.66356-4.08023,9.07586-5.00806a21.09129,21.09129,0,0,1,6.00826-.18117,59.29483,59.29483,0,0,1,11.73385,2.17874,9.15821,9.15821,0,0,0,9.46549-2.96478c.68005-1.10505.14829-1.90784-.51815-2.86683-2.89775-4.47819-8.455-5.34868-13.36061-6.24993l-1.4404-.25139c-5.47981-.95239-10.98176,1.34237-15.44372,4.45247a18.02615,18.02615,0,0,0-4.33114,5.54978,16.88121,16.88121,0,0,0-2.026,5.43724Zm-.29881-.02666a28.29542,28.29542,0,0,1,4.908-11.7667c4.10234-4.391,9.98589-7.4788,16.148-6.92373,5.03236.84936,10.35331,1.76534,14.585,4.89161,3.93956,3.344,6.78094,7.85881,1.08409,11.19652-2.75474,1.53992-6.2786,2.31669-9.29167,1.1672a67.4837,67.4837,0,0,0-14.23717-3.05694c-4.44192-.55421-8.50027,2.03437-11.88994,4.6407l-.286.23092a.7973.7973,0,0,1-.38114.21406.5566.5566,0,0,1-.6391-.59364Z" transform="translate(-3.73344 -21.99416)"/>
      <path class="cls-3" d="M77.10252,172.46219c-9.5293-4.18472-21.35234-5.074-30.65629-.13383-2.9413,1.6666-5.35118,4.36479-7.95445,6.88423l-.16052-.11931c2.53229-4.89054,6.62666-9.59978,12.31293-10.61832a37.29353,37.29353,0,0,1,16.3899-.00857,44.973,44.973,0,0,1,10.15907,3.81752l-.09064.17828Z" transform="translate(-3.73344 -21.99416)"/>
      <path class="cls-3" d="M38.27168,177.55363a.5881.5881,0,0,1-.78313.428c-.27233-.1185-.39583-.39788-.577-.58829C33.441,173.175,29.98377,168.552,25.43294,165.47a12.5398,12.5398,0,0,0-5.321-2.10584c-5.97059-.62351-13.33215-2.972-16.10843-8.95531-1.16523-2.65639,1.68926-4.98621,3.81065-5.86722A22.08893,22.08893,0,0,1,20.53958,147.028c8.49587,1.9558,14.19842,10.33334,16.49234,18.29474.65637,4.06944,1.5994,8.10992,1.23976,12.23088Zm-.29422-.05863c.2099-3.91921-1.23094-8.02671-2.47331-11.68023a38.38354,38.38354,0,0,0-6.51625-9.67908c-2.50138-2.74755-5.434-5.35507-9.077-6.205a19.14547,19.14547,0,0,0-11.12351.80465C7.63,151.27259,5.58,152.20586,6.0376,153.6385c1.81659,4.31012,6.9864,6.6274,11.361,7.70531,3.0572.4685,6.28728,1.18841,8.68581,3.21371,4.41486,3.51782,7.39735,8.43428,11.04049,12.65884.15942.168.33546.45352.4657.49536a.29257.29257,0,0,0,.38682-.21672Z" transform="translate(-3.73344 -21.99416)"/>
      <path class="cls-3" d="M4.84488,152.56908c17.58153.04432,28.59526,7.9537,33.16469,25.07l-.18687.07112c-1.89007-3.22621-3.744-6.4072-5.77591-9.44243-2.5472-3.7279-5.03614-7.6143-8.8925-10.03158A41.311,41.311,0,0,0,4.84561,152.769l-.00073-.19993Z" transform="translate(-3.73344 -21.99416)"/>
      <path class="cls-3" d="M43.277,152.00882a.5881.5881,0,0,1-.75825.47066c-.27847-.10326-.41724-.37537-.60865-.55547-3.69877-4.0197-7.40652-8.4443-12.121-11.26966a12.53995,12.53995,0,0,0-5.42941-1.80813c-5.99594-.29207-13.47619-2.22956-16.57939-8.05-1.31047-2.58783,1.4107-5.07206,3.48007-6.06914a22.08885,22.08885,0,0,1,12.62215-2.21566c8.5911,1.48259,14.74858,9.53166,17.47963,17.3539.88061,4.02687,2.04581,8.009,1.91481,12.14351Zm-.297-.04225c-.00734-3.92481-1.67331-7.94628-3.116-11.52544a38.38372,38.38372,0,0,0-7.042-9.3036c-2.64962-2.60489-5.722-5.04609-9.40657-5.693a19.14548,19.14548,0,0,0-11.06192,1.41907c-1.1258.60046-3.12107,1.64576-2.58484,3.05088,2.05237,4.20295,7.34251,6.23055,11.77009,7.06469,3.07845.29857,6.34342.83858,8.85037,2.728,4.60279,3.26806,7.85282,8.01192,11.7242,12.02835.16848.159.36.43426.4924.46883a.29257.29257,0,0,0,.37424-.23778Z" transform="translate(-3.73344 -21.99416)"/>
      <path class="cls-3" d="M8.51856,128.91264c17.557-.92882,28.99164,6.35882,34.50142,23.196l-.18264.08136c-2.06574-3.11666-4.09288-6.19016-6.28968-9.10828-2.74962-3.58121-5.44986-7.32388-9.43409-9.524a41.31125,41.31125,0,0,0-18.58321-4.44553l-.0118-.19958Z" transform="translate(-3.73344 -21.99416)"/>
      <path class="cls-3" d="M44.02522,152.15746c-3.239.33105,4.40541-8.69567,5.20763-9.41751a31.5852,31.5852,0,0,1,9.41582-6.97553A27.53064,27.53064,0,0,1,76.193,133.8422c3.64425.6022,11.90379,4.14788,7.34351,8.72012-3.47357,2.35182-7.216,4.211-11.49263,4.53318-2.15254.101-4.06379-.242-5.81123-.267-7.56314.40563-14.98449,3.09433-22.20743,5.329Zm-.08711-.28707c7.41565-2.50074,14.302-6.43909,22.14114-7.71849,4.06618-.27139,7.206.21578,10.92-1.35485a28.76251,28.76251,0,0,0,4.86156-2.23874,1.39489,1.39489,0,0,0,.44348-.51742.62517.62517,0,0,0-.05616-.49179c-1.28-2.03111-4.2002-2.94345-6.54759-3.616a26.79991,26.79991,0,0,0-21.47121,3.80651A29.96016,29.96016,0,0,0,44.1981,149.8219c-.19973.51718-1.35041,2.13538-.26,2.04849Z" transform="translate(-3.73344 -21.99416)"/>
      <path class="cls-3" d="M83.56609,140.34023c-6.98824-1.599-14.60957-1.76456-21.32678.85916-6.70925,2.74468-12.80944,6.59409-18.85854,10.63609l-.13788-.14473c7.20922-8.41362,18.32777-14.024,29.51463-13.51409a41.37226,41.37226,0,0,1,10.86868,1.97282l-.06011.19075Z" transform="translate(-3.73344 -21.99416)"/>
    </g>
  </g>
</svg>
